{"title":"Rise Of The Guardians 2012 BRRip 720p x264 AAC - PRiSTiNE [P2PDL","uid":8201854,"size":578304752,"categoryP":"video","categoryS":"hd___movies","magnet":"?xt=urn:btih:6e0f10deeffe0037d009c3ee63303875b3113180&amp;dn=Rise+Of+The+Guardians+2012+BRRip+720p+x264+AAC+-+PRiSTiNE+%5BP2PDL&amp;tr=udp%3A%2F%2Ftracker.openbittorrent.com%3A80&amp;tr=udp%3A%2F%2Fopen.demonii.com%3A1337&amp;tr=udp%3A%2F%2Ftracker.coppersurfer.tk%3A6969&amp;tr=udp%3A%2F%2Fexodus.desync.com%3A6969","seeders":2,"leechers":0,"uploader":"Vitamin_X","files":-1,"time":1362035652,"description":"_________________________  Visit us at _________________________\n  &lt;a href=&quot;\nhttp://p2pdl.com&quot; rel=&quot;nofollow&quot; target=&quot;_NEW&quot;&gt;\nhttp://p2pdl.com&lt;/a&gt;  ____________________________ &lt;a href=&quot; http://p2pdl.com&quot; rel=&quot;nofollow&quot; target=&quot;_NEW&quot;&gt; http://p2pdl.com&lt;/a&gt;\n\n\n &lt;a href=&quot;\nhttp://cdn.piczend.com/images/GY7nrNoh/1362011728_rise.jpg&quot; rel=&quot;nofollow&quot; target=&quot;_NEW&quot;&gt;\nhttp://cdn.piczend.com/images/GY7nrNoh/1362011728_rise.jpg&lt;/a&gt;\n\nRise Of The Guardians 2012 BRRip 720p x264 AAC - PRiSTiNE\n\nGenre: Animation | Adventure | Family | Fantasy\nPlot: When the evil spirit Pitch launches an assault on Earth, \nthe Immortal Guardians team up to protect the innocence of children all around the world.\nDirector: Peter Ramsey\nStars: Hugh Jackman, Alec Baldwin, Isla Fisher\nRated: Rated PG for thematic elements and some mildly scary action.\n\nInfo: &lt;a href=&quot;\nhttp://www.imdb.com/title/tt1446192/&quot; rel=&quot;nofollow&quot; target=&quot;_NEW&quot;&gt;\nhttp://www.imdb.com/title/tt1446192/&lt;/a&gt;\n &lt;a href=&quot;\nhttp://www.rottentomatoes.com/m/rise_of_the_guardians_2012/&quot; rel=&quot;nofollow&quot; target=&quot;_NEW&quot;&gt;\nhttp://www.rottentomatoes.com/m/rise_of_the_guardians_2012/&lt;/a&gt;\n\nGeneral\nComplete name                  : Rise Of The Guardians 2012 BRRip 720p x264 AAC - PRiSTiNE.mp4\nFormat                         : MPEG-4\nFormat profile                 : Base Media / Version 2\nCodec ID                       : mp42\nFile size                      : 546 MiB\nDuration                       : 1h 37mn\nOverall bit rate mode          : Variable\nOverall bit rate               : 785 Kbps\n\nVideo\nFormat                         : AVC\nWidth                          : 1 280 pixels\nHeight                         : 720 pixels\nDisplay aspect ratio           : 16:9\nFrame rate mode                : Variable\nFrame rate                     : 23.976 fps\nColor space                    : YUV\nChroma subsampling             : 4:2:0\nBit depth                      : 8 bits\nScan type                      : Progressive\nBits/(Pixel*Frame)             : 0.032\nStream size                    : 486 MiB (89%)\nWriting library                : x264 core 129\n\nAudio\nFormat                         : AAC\nDuration                       : 1h 37mn\nBit rate mode                  : Variable\nBit rate                       : 79.8 Kbps\nChannel(s)                     : 2 channels\nChannel positions              : Front: L R\nSampling rate                  : 48.0 KHz\nStream size                    : 55.5 MiB (10%)\nLanguage                       : English\n\nSubtitle                       : Yes ( English)\n\n\nScreens: &lt;a href=&quot;\nhttp://www.shotpix.com/images/33155445833859808854.jpg&quot; rel=&quot;nofollow&quot; target=&quot;_NEW&quot;&gt;\nhttp://www.shotpix.com/images/33155445833859808854.jpg&lt;/a&gt; &lt;a href=&quot;\nhttp://www.shotpix.com/images/82950204350446986057.jpg&quot; rel=&quot;nofollow&quot; target=&quot;_NEW&quot;&gt;\nhttp://www.shotpix.com/images/82950204350446986057.jpg&lt;/a&gt; &lt;a href=&quot;\nhttp://www.shotpix.com/images/96840258220685629071.jpg&quot; rel=&quot;nofollow&quot; target=&quot;_NEW&quot;&gt;\nhttp://www.shotpix.com/images/96840258220685629071.jpg&lt;/a&gt; &lt;a href=&quot;\nhttp://www.shotpix.com/images/92916103786000739127.jpg&quot; rel=&quot;nofollow&quot; target=&quot;_NEW&quot;&gt;\nhttp://www.shotpix.com/images/92916103786000739127.jpg&lt;/a&gt;\n\n\nThumbs: &lt;a href=&quot;\nhttp://www.shotpix.com/images/21520482128491609032.jpg&quot; rel=&quot;nofollow&quot; target=&quot;_NEW&quot;&gt;\nhttp://www.shotpix.com/images/21520482128491609032.jpg&lt;/a&gt;\n----------------------------------------------------------------------------------------------------\n\n\nRecommend to you to use latest version of VLC player. Install K-Lite Codec Pack or shark007 codecs\nin case of any kind of problem in playback (For non-VLC Media Player users). Alternatively, install\nCore AVC codecs, the fastest decoder that there is coupled with Community Center Codec Pack and play\non Windows Media Player Classic. Check sample to be sure.\nEnjoy!\n\nGreets to: VYTO, a2zRG, MusiK_KinG, Kuroyukihime, TorDigger, Ash968, StyLishSaLH, Masta and staff members at\nExtraTorrent, TPB, H33T, KAT, 1337x, PublicHD, Ahashare, BTScene, SilverTorrent, LimeTorrents, TorrentMafia,\nP2PDL, and all others.\n\nEncoder Notes: Looking For Early Access To Anything You Can Provide DVDScr, R5, DVDR, BluRay, Direct\nAudio, Early Music Releases, Seedboxes, Dedicated Servers anything u can provide, Advance / Promo CDs/\nDVDs. If You Got anything to offer contact me at &quot;&lt;a class=&quot;__cf_email__&quot; href=&quot;/cdn-cgi/l/email-protection&quot; data-cfemail=&quot;ddadafba9db5a8aeb5f3beb2b0&quot;&gt;[email&amp;#160;protected]&lt;/a&gt;&lt;script cf-hash='f9e31' type=&quot;text/javascript&quot;&gt;\n/* &lt;![CDATA[ */!function(){try{var t=&quot;currentScript&quot;in document?document.currentScript:function(){for(var t=document.getElementsByTagName(&quot;script&quot;),e=t.length;e--;)if(t[e].getAttribute(&quot;cf-hash&quot;))return t[e]}();if(t&amp;&amp;t.previousSibling){var e,r,n,i,c=t.previousSibling,a=c.getAttribute(&quot;data-cfemail&quot;);if(a){for(e=&quot;&quot;,r=parseInt(a.substr(0,2),16),n=2;a.length-n;n+=2)i=parseInt(a.substr(n,2),16)^r,e+=String.fromCharCode(i);e=document.createTextNode(e),c.parentNode.replaceChild(e,c)}}}catch(u){}}();/* ]]&gt; */&lt;/script&gt;&quot;.","torrent":{"xt":"urn:btih:6e0f10deeffe0037d009c3ee63303875b3113180","amp;dn":"Rise+Of+The+Guardians+2012+BRRip+720p+x264+AAC+-+PRiSTiNE+%5BP2PDL","amp;tr":["udp%3A%2F%2Ftracker.openbittorrent.com%3A80","udp%3A%2F%2Fopen.demonii.com%3A1337","udp%3A%2F%2Ftracker.coppersurfer.tk%3A6969","udp%3A%2F%2Fexodus.desync.com%3A6969"],"infoHash":"6e0f10deeffe0037d009c3ee63303875b3113180","infoHashBuffer":{"type":"Buffer","data":[110,15,16,222,239,254,0,55,208,9,195,238,99,48,56,117,179,17,49,128]},"announce":[],"urlList":[]}}